<?xml version="1.0" standalone="no"?>
<!DOCTYPE svg PUBLIC "-//W3C//DTD SVG 20010904//EN"
 "http://www.w3.org/TR/2001/REC-SVG-20010904/DTD/svg10.dtd">
<svg version="1.0" xmlns="http://www.w3.org/2000/svg"
 width="700.000000pt" height="700.000000pt" viewBox="0 0 700.000000 700.000000"
 preserveAspectRatio="xMidYMid meet">
<metadata>
Created by potrace 1.11, written by Peter Selinger 2001-2013
</metadata>
<g transform="translate(0.000000,700.000000) scale(0.100000,-0.100000)"
fill="#000000" stroke="none">
<path d="M3360 6976 c-36 -13 -132 -56 -215 -96 -82 -40 -177 -85 -210 -100
-33 -15 -127 -60 -210 -100 -170 -81 -281 -134 -440 -210 -60 -29 -155 -74
-210 -100 -55 -26 -149 -71 -210 -100 -60 -29 -150 -72 -200 -95 -49 -24 -148
-71 -220 -105 -71 -34 -161 -77 -200 -95 -38 -18 -133 -63 -210 -100 -77 -37
-183 -87 -235 -112 -301 -142 -324 -155 -383 -214 -67 -67 -113 -158 -125
-247 -4 -31 -7 -856 -7 -1832 1 -1408 4 -1784 14 -1820 22 -77 61 -142 121
-202 48 -48 83 -70 211 -131 216 -105 431 -207 434 -207 2 0 101 -47 220 -105
120 -58 219 -105 220 -105 2 0 75 -34 162 -76 87 -42 289 -138 448 -214 160
-76 389 -185 510 -243 121 -57 258 -123 305 -145 47 -22 156 -74 243 -116 187
-89 238 -106 326 -106 89 0 144 17 286 85 131 63 239 114 505 240 96 46 234
111 305 145 72 34 166 79 210 100 44 21 139 66 210 100 72 34 171 81 220 105
50 24 144 69 210 100 66 32 165 79 220 105 892 423 859 406 925 475 57 61 104
153 118 231 5 29 8 822 8 1845 l-2 1794 -29 75 c-24 59 -44 89 -96 142 -60 62
-82 76 -230 147 -223 107 -367 176 -474 226 -49 23 -139 66 -200 95 -207 99
-340 162 -430 205 -49 23 -328 156 -620 295 -291 139 -582 277 -645 307 -370
177 -377 179 -490 182 -57 1 -91 -5 -140 -23z"/>
</g>
</svg>
